<svg xmlns="http://www.w3.org/2000/svg" viewBox="0 0 200 120">
  <defs>
    <filter id="blur" x="-50%" y="-50%" width="200%" height="200%">
      <feGaussianBlur in="SourceGraphic" stdDeviation="3" />
    </filter>
  </defs>
  <!-- Shadow layer for depth -->
  <g filter="url(#blur)" opacity="0.3" transform="translate(3, 5)">
    <ellipse cx="100" cy="70" rx="60" ry="35" fill="#888"/>
    <ellipse cx="55" cy="65" rx="35" ry="28" fill="#888"/>
    <ellipse cx="145" cy="68" rx="30" ry="25" fill="#888"/>
    <ellipse cx="80" cy="45" rx="28" ry="22" fill="#888"/>
    <ellipse cx="115" cy="42" rx="32" ry="25" fill="#888"/>
  </g>
  <!-- Main cloud body -->
  <g filter="url(#blur)" opacity="0.95" fill="white">
    <ellipse cx="100" cy="70" rx="60" ry="35"/>
    <ellipse cx="55" cy="65" rx="35" ry="28"/>
    <ellipse cx="145" cy="68" rx="30" ry="25"/>
    <ellipse cx="80" cy="45" rx="28" ry="22"/>
    <ellipse cx="115" cy="42" rx="32" ry="25"/>
    <ellipse cx="45" cy="75" rx="18" ry="15"/>
    <ellipse cx="155" cy="78" rx="15" ry="12"/>
    <!-- Extra puffiness -->
    <ellipse cx="95" cy="35" rx="20" ry="16"/>
    <ellipse cx="125" cy="38" rx="22" ry="18"/>
  </g>
</svg>
